<?xml version="1.0" encoding="utf-8"?>
<svg version="1.1" xmlns:xlink="http://www.w3.org/1999/xlink" width="107px" height="33px" xmlns="http://www.w3.org/2000/svg">
  <defs>
    <mask fill="white" id="clip293">
      <path d="M 0 27.1071428571429  L 0 5.89285714285714  C 0 2.5928571428572  2.35399999999981 0  5.35 0  L 101.65 0  C 104.646 0  107 2.5928571428572  107 5.89285714285714  L 107 27.1071428571429  C 107 30.4071428571428  104.646 33  101.65 33  L 42.9927927927924 33  L 5.35 33  C 2.35399999999981 33  0 30.4071428571428  0 27.1071428571429  Z " fill-rule="evenodd" />
    </mask>
  </defs>
  <g transform="matrix(1 0 0 1 -1046 -403 )">
    <path d="M 0 27.1071428571429  L 0 5.89285714285714  C 0 2.5928571428572  2.35399999999981 0  5.35 0  L 101.65 0  C 104.646 0  107 2.5928571428572  107 5.89285714285714  L 107 27.1071428571429  C 107 30.4071428571428  104.646 33  101.65 33  L 42.9927927927924 33  L 5.35 33  C 2.35399999999981 33  0 30.4071428571428  0 27.1071428571429  Z " fill-rule="nonzero" fill="#555555" stroke="none" transform="matrix(1 0 0 1 1046 403 )" />
    <path d="M 0 27.1071428571429  L 0 5.89285714285714  C 0 2.5928571428572  2.35399999999981 0  5.35 0  L 101.65 0  C 104.646 0  107 2.5928571428572  107 5.89285714285714  L 107 27.1071428571429  C 107 30.4071428571428  104.646 33  101.65 33  L 42.9927927927924 33  L 5.35 33  C 2.35399999999981 33  0 30.4071428571428  0 27.1071428571429  Z " stroke-width="2" stroke="#000000" fill="none" transform="matrix(1 0 0 1 1046 403 )" mask="url(#clip293)" />
  </g>
</svg>