<?xml version="1.0" encoding="utf-8"?>
<svg version="1.1" xmlns:xlink="http://www.w3.org/1999/xlink" width="106px" height="40px" xmlns="http://www.w3.org/2000/svg">
  <defs>
    <mask fill="white" id="clip88">
      <path d="M 0 32.8571428571429  L 0 7.14285714285714  C 0 3.14285714285721  2.33199999999981 0  5.3 0  L 100.7 0  C 103.668 0  106 3.14285714285721  106 7.14285714285714  L 106 32.8571428571429  C 106 36.8571428571428  103.668 40  100.7 40  L 42.5909909909906 40  L 5.3 40  C 2.33199999999981 40  0 36.8571428571428  0 32.8571428571429  Z " fill-rule="evenodd" />
    </mask>
  </defs>
  <g transform="matrix(1 0 0 1 -113 -135 )">
    <path d="M 0 32.8571428571429  L 0 7.14285714285714  C 0 3.14285714285721  2.33199999999981 0  5.3 0  L 100.7 0  C 103.668 0  106 3.14285714285721  106 7.14285714285714  L 106 32.8571428571429  C 106 36.8571428571428  103.668 40  100.7 40  L 42.5909909909906 40  L 5.3 40  C 2.33199999999981 40  0 36.8571428571428  0 32.8571428571429  Z " fill-rule="nonzero" fill="#ec808d" stroke="none" transform="matrix(1 0 0 1 113 135 )" />
    <path d="M 0 32.8571428571429  L 0 7.14285714285714  C 0 3.14285714285721  2.33199999999981 0  5.3 0  L 100.7 0  C 103.668 0  106 3.14285714285721  106 7.14285714285714  L 106 32.8571428571429  C 106 36.8571428571428  103.668 40  100.7 40  L 42.5909909909906 40  L 5.3 40  C 2.33199999999981 40  0 36.8571428571428  0 32.8571428571429  Z " stroke-width="2" stroke="#797979" fill="none" transform="matrix(1 0 0 1 113 135 )" mask="url(#clip88)" />
  </g>
</svg>