<?xml version="1.0" encoding="utf-8"?>
<svg version="1.1" xmlns:xlink="http://www.w3.org/1999/xlink" width="107px" height="39px" xmlns="http://www.w3.org/2000/svg">
  <defs>
    <mask fill="white" id="clip270">
      <path d="M 0 32.0357142857143  L 0 6.96428571428571  C 0 3.06428571428578  2.35399999999981 0  5.35 0  L 101.65 0  C 104.646 0  107 3.06428571428578  107 6.96428571428571  L 107 32.0357142857143  C 107 35.9357142857142  104.646 39  101.65 39  L 42.9927927927924 39  L 5.35 39  C 2.35399999999981 39  0 35.9357142857142  0 32.0357142857143  Z " fill-rule="evenodd" />
    </mask>
  </defs>
  <g transform="matrix(1 0 0 1 -112 -119 )">
    <path d="M 0 32.0357142857143  L 0 6.96428571428571  C 0 3.06428571428578  2.35399999999981 0  5.35 0  L 101.65 0  C 104.646 0  107 3.06428571428578  107 6.96428571428571  L 107 32.0357142857143  C 107 35.9357142857142  104.646 39  101.65 39  L 42.9927927927924 39  L 5.35 39  C 2.35399999999981 39  0 35.9357142857142  0 32.0357142857143  Z " fill-rule="nonzero" fill="#555555" stroke="none" transform="matrix(1 0 0 1 112 119 )" />
    <path d="M 0 32.0357142857143  L 0 6.96428571428571  C 0 3.06428571428578  2.35399999999981 0  5.35 0  L 101.65 0  C 104.646 0  107 3.06428571428578  107 6.96428571428571  L 107 32.0357142857143  C 107 35.9357142857142  104.646 39  101.65 39  L 42.9927927927924 39  L 5.35 39  C 2.35399999999981 39  0 35.9357142857142  0 32.0357142857143  Z " stroke-width="2" stroke="#797979" fill="none" transform="matrix(1 0 0 1 112 119 )" mask="url(#clip270)" />
  </g>
</svg>