<?xml version="1.0" encoding="utf-8"?>
<svg version="1.1" xmlns:xlink="http://www.w3.org/1999/xlink" width="106px" height="35px" xmlns="http://www.w3.org/2000/svg">
  <defs>
    <mask fill="white" id="clip273">
      <path d="M 0 30.2702702702703  L 0 4.72972972972973  C 0 2.08108108108108  1.94333333333332 0  4.41666666666667 0  L 37.9833333333333 0  L 56.5333333333333 0  L 101.583333333333 0  C 104.056666666667 0  106 2.08108108108108  106 4.72972972972973  L 106 30.2702702702703  C 106 32.9189189189189  104.056666666667 35  101.583333333333 35  L 4.41666666666667 35  C 1.94333333333332 35  0 32.9189189189189  0 30.2702702702703  Z " fill-rule="evenodd" />
    </mask>
  </defs>
  <g transform="matrix(1 0 0 1 -112 -76 )">
    <path d="M 0 30.2702702702703  L 0 4.72972972972973  C 0 2.08108108108108  1.94333333333332 0  4.41666666666667 0  L 37.9833333333333 0  L 56.5333333333333 0  L 101.583333333333 0  C 104.056666666667 0  106 2.08108108108108  106 4.72972972972973  L 106 30.2702702702703  C 106 32.9189189189189  104.056666666667 35  101.583333333333 35  L 4.41666666666667 35  C 1.94333333333332 35  0 32.9189189189189  0 30.2702702702703  Z " fill-rule="nonzero" fill="#ec808d" stroke="none" transform="matrix(1 0 0 1 112 76 )" />
    <path d="M 0 30.2702702702703  L 0 4.72972972972973  C 0 2.08108108108108  1.94333333333332 0  4.41666666666667 0  L 37.9833333333333 0  L 56.5333333333333 0  L 101.583333333333 0  C 104.056666666667 0  106 2.08108108108108  106 4.72972972972973  L 106 30.2702702702703  C 106 32.9189189189189  104.056666666667 35  101.583333333333 35  L 4.41666666666667 35  C 1.94333333333332 35  0 32.9189189189189  0 30.2702702702703  Z " stroke-width="2" stroke="#797979" fill="none" transform="matrix(1 0 0 1 112 76 )" mask="url(#clip273)" />
  </g>
</svg>