<?xml version="1.0" encoding="utf-8"?>
<svg version="1.1" xmlns:xlink="http://www.w3.org/1999/xlink" width="128px" height="45px" xmlns="http://www.w3.org/2000/svg">
  <defs>
    <mask fill="white" id="clip111">
      <path d="M 0 36.9642857142857  L 0 8.03571428571429  C 0 3.53571428571436  2.81599999999977 0  6.4 0  L 121.6 0  C 125.184 0  128 3.53571428571436  128 8.03571428571429  L 128 36.9642857142857  C 128 41.4642857142856  125.184 45  121.6 45  L 51.4306306306302 45  L 6.4 45  C 2.81599999999977 45  0 41.4642857142856  0 36.9642857142857  Z " fill-rule="evenodd" />
    </mask>
  </defs>
  <g transform="matrix(1 0 0 1 -1064 -643 )">
    <path d="M 0 36.9642857142857  L 0 8.03571428571429  C 0 3.53571428571436  2.81599999999977 0  6.4 0  L 121.6 0  C 125.184 0  128 3.53571428571436  128 8.03571428571429  L 128 36.9642857142857  C 128 41.4642857142856  125.184 45  121.6 45  L 51.4306306306302 45  L 6.4 45  C 2.81599999999977 45  0 41.4642857142856  0 36.9642857142857  Z " fill-rule="nonzero" fill="#027db4" stroke="none" transform="matrix(1 0 0 1 1064 643 )" />
    <path d="M 0 36.9642857142857  L 0 8.03571428571429  C 0 3.53571428571436  2.81599999999977 0  6.4 0  L 121.6 0  C 125.184 0  128 3.53571428571436  128 8.03571428571429  L 128 36.9642857142857  C 128 41.4642857142856  125.184 45  121.6 45  L 51.4306306306302 45  L 6.4 45  C 2.81599999999977 45  0 41.4642857142856  0 36.9642857142857  Z " stroke-width="2" stroke="#555555" fill="none" transform="matrix(1 0 0 1 1064 643 )" mask="url(#clip111)" />
  </g>
</svg>