<?xml version="1.0" encoding="utf-8"?>
<svg version="1.1" xmlns:xlink="http://www.w3.org/1999/xlink" width="107px" height="39px" xmlns="http://www.w3.org/2000/svg">
  <defs>
    <mask fill="white" id="clip81">
      <path d="M 0 33.2647058823529  L 0 5.73529411764706  C 0 2.52352941176476  1.57986577181195 0  3.59060402684564 0  L 103.409395973154 0  C 104.630780269585 0  105.693184621088 0.931112063382664  106.339090864608 2.38200082854443  C 106.756525943557 3.31967850592999  107 4.47445413594293  107 5.73529411764706  L 107 33.2647058823529  C 107 36.4764705882352  105.420134228188 39  103.409395973154 39  L 3.59060402684564 39  C 1.57986577181195 39  0 36.4764705882352  0 33.2647058823529  Z " fill-rule="evenodd" />
    </mask>
  </defs>
  <g transform="matrix(1 0 0 1 -3 -34 )">
    <path d="M 0 33.2647058823529  L 0 5.73529411764706  C 0 2.52352941176476  1.57986577181195 0  3.59060402684564 0  L 103.409395973154 0  C 104.630780269585 0  105.693184621088 0.931112063382664  106.339090864608 2.38200082854443  C 106.756525943557 3.31967850592999  107 4.47445413594293  107 5.73529411764706  L 107 33.2647058823529  C 107 36.4764705882352  105.420134228188 39  103.409395973154 39  L 3.59060402684564 39  C 1.57986577181195 39  0 36.4764705882352  0 33.2647058823529  Z " fill-rule="nonzero" fill="#555555" stroke="none" transform="matrix(1 0 0 1 3 34 )" />
    <path d="M 0 33.2647058823529  L 0 5.73529411764706  C 0 2.52352941176476  1.57986577181195 0  3.59060402684564 0  L 103.409395973154 0  C 104.630780269585 0  105.693184621088 0.931112063382664  106.339090864608 2.38200082854443  C 106.756525943557 3.31967850592999  107 4.47445413594293  107 5.73529411764706  L 107 33.2647058823529  C 107 36.4764705882352  105.420134228188 39  103.409395973154 39  L 3.59060402684564 39  C 1.57986577181195 39  0 36.4764705882352  0 33.2647058823529  Z " stroke-width="2" stroke="#797979" fill="none" transform="matrix(1 0 0 1 3 34 )" mask="url(#clip81)" />
  </g>
</svg>