<?xml version="1.0" encoding="utf-8"?>
<svg version="1.1" xmlns:xlink="http://www.w3.org/1999/xlink" width="106px" height="38px" xmlns="http://www.w3.org/2000/svg">
  <defs>
    <mask fill="white" id="clip264">
      <path d="M 0 31.2142857142857  L 0 6.78571428571429  C 0 2.98571428571435  2.33199999999981 0  5.3 0  L 100.7 0  C 103.668 0  106 2.98571428571435  106 6.78571428571429  L 106 31.2142857142857  C 106 35.0142857142857  103.668 38  100.7 38  L 42.5909909909906 38  L 5.3 38  C 2.33199999999981 38  0 35.0142857142857  0 31.2142857142857  Z " fill-rule="evenodd" />
    </mask>
  </defs>
  <g transform="matrix(1 0 0 1 -113 -130 )">
    <path d="M 0 31.2142857142857  L 0 6.78571428571429  C 0 2.98571428571435  2.33199999999981 0  5.3 0  L 100.7 0  C 103.668 0  106 2.98571428571435  106 6.78571428571429  L 106 31.2142857142857  C 106 35.0142857142857  103.668 38  100.7 38  L 42.5909909909906 38  L 5.3 38  C 2.33199999999981 38  0 35.0142857142857  0 31.2142857142857  Z " fill-rule="nonzero" fill="#ec808d" stroke="none" transform="matrix(1 0 0 1 113 130 )" />
    <path d="M 0 31.2142857142857  L 0 6.78571428571429  C 0 2.98571428571435  2.33199999999981 0  5.3 0  L 100.7 0  C 103.668 0  106 2.98571428571435  106 6.78571428571429  L 106 31.2142857142857  C 106 35.0142857142857  103.668 38  100.7 38  L 42.5909909909906 38  L 5.3 38  C 2.33199999999981 38  0 35.0142857142857  0 31.2142857142857  Z " stroke-width="2" stroke="#797979" fill="none" transform="matrix(1 0 0 1 113 130 )" mask="url(#clip264)" />
  </g>
</svg>