<?xml version="1.0" encoding="utf-8"?>
<svg version="1.1" xmlns:xlink="http://www.w3.org/1999/xlink" width="73px" height="22px" xmlns="http://www.w3.org/2000/svg">
  <defs>
    <mask fill="white" id="clip80">
      <path d="M 0 18.3333333333333  L 0 3.66666666666667  C 0 1.61333333333334  2.0589743589744 0  4.67948717948718 0  L 57.5780379041248 0  L 68.3205128205128 0  C 70.9410256410256 0  73 1.61333333333334  73 3.66666666666667  L 73 18.3333333333333  C 73 20.3866666666667  70.9410256410256 22  68.3205128205128 22  L 4.67948717948718 22  C 2.0589743589744 22  0 20.3866666666667  0 18.3333333333333  Z " fill-rule="evenodd" />
    </mask>
  </defs>
  <g transform="matrix(1 0 0 1 -376 -207 )">
    <path d="M 0 18.3333333333333  L 0 3.66666666666667  C 0 1.61333333333334  2.0589743589744 0  4.67948717948718 0  L 57.5780379041248 0  L 68.3205128205128 0  C 70.9410256410256 0  73 1.61333333333334  73 3.66666666666667  L 73 18.3333333333333  C 73 20.3866666666667  70.9410256410256 22  68.3205128205128 22  L 4.67948717948718 22  C 2.0589743589744 22  0 20.3866666666667  0 18.3333333333333  Z " fill-rule="nonzero" fill="#027db4" stroke="none" transform="matrix(1 0 0 1 376 207 )" />
    <path d="M 0 18.3333333333333  L 0 3.66666666666667  C 0 1.61333333333334  2.0589743589744 0  4.67948717948718 0  L 57.5780379041248 0  L 68.3205128205128 0  C 70.9410256410256 0  73 1.61333333333334  73 3.66666666666667  L 73 18.3333333333333  C 73 20.3866666666667  70.9410256410256 22  68.3205128205128 22  L 4.67948717948718 22  C 2.0589743589744 22  0 20.3866666666667  0 18.3333333333333  Z " stroke-width="2" stroke="#000000" fill="none" transform="matrix(1 0 0 1 376 207 )" mask="url(#clip80)" />
  </g>
</svg>